<?xml version="1.0" encoding="utf-8"?>
<!-- Generator: Adobe Illustrator 16.0.0, SVG Export Plug-In . SVG Version: 6.00 Build 0)  -->
<!DOCTYPE svg PUBLIC "-//W3C//DTD SVG 1.1//EN" "http://www.w3.org/Graphics/SVG/1.1/DTD/svg11.dtd">
<svg version="1.1" xmlns="http://www.w3.org/2000/svg" xmlns:xlink="http://www.w3.org/1999/xlink" x="0px" y="0px"
	 width="172.278px" height="174.782px" viewBox="0 0 172.278 174.782" enable-background="new 0 0 172.278 174.782"
	 xml:space="preserve" viewbox="0 0 172 174">
<g id="Layer_1">
	<g>
		<g>
			<path fill="#9d0003" d="M86.14,154.736c-1.12,0-2.241-0.416-3.111-1.248l3.111-3.252l-3.12,3.244
				c-32.97-31.549-67.062-64.169-67.062-97.513c0-19.808,16.751-35.922,37.342-35.922c16.271,0,25.486,7.356,32.841,18.985
				c7.354-11.629,16.569-18.985,32.842-18.985c20.589,0,37.34,16.114,37.34,35.922c0,33.346-34.097,65.97-67.07,97.521
				C88.381,154.32,87.26,154.736,86.14,154.736z M53.299,29.045c-15.628,0-28.342,12.077-28.342,26.922
				c0,28.533,30.579,58.726,61.183,88.04c30.605-29.314,61.182-59.506,61.182-88.04c0-14.845-12.713-26.922-28.34-26.922
				c-13.337,0-20.617,5.336-28.851,21.146c-0.775,1.487-2.313,2.421-3.991,2.421s-3.216-0.934-3.991-2.421
				C73.914,34.381,66.634,29.045,53.299,29.045z"/>
		</g>
	</g>
</g>
<g id="Layer_2">
</g>
</svg>
