<?xml version="1.0" encoding="utf-8"?>
<!-- Generator: Adobe Illustrator 16.0.0, SVG Export Plug-In . SVG Version: 6.00 Build 0)  -->
<!DOCTYPE svg PUBLIC "-//W3C//DTD SVG 1.1//EN" "http://www.w3.org/Graphics/SVG/1.1/DTD/svg11.dtd">
<svg version="1.1" xmlns="http://www.w3.org/2000/svg" xmlns:xlink="http://www.w3.org/1999/xlink" x="0px" y="0px"
	 width="172.278px" height="174.782px" viewBox="0 0 172.278 174.782" enable-background="new 0 0 172.278 174.782"
	 xml:space="preserve" viewbox="0 0 172 174">
<g id="Layer_1">
	<g>
		<g>
			<path fill="#9d0003" d="M86.14,159.64c-35.873,0-65.057-29.184-65.057-65.055c0-35.873,29.184-65.057,65.057-65.057
				c35.872,0,65.056,29.184,65.056,65.057C151.195,130.457,122.012,159.64,86.14,159.64z M86.14,38.529
				c-30.91,0-56.057,25.146-56.057,56.057c0,30.908,25.147,56.055,56.057,56.055c30.909,0,56.056-25.146,56.056-56.055
				C142.195,63.675,117.049,38.529,86.14,38.529z"/>
		</g>
		<g>
			<path fill="#9d0003" d="M107.402,24.142H65.211c-2.485,0-4.5-2.015-4.5-4.5s2.015-4.5,4.5-4.5h42.191c2.484,0,4.5,2.015,4.5,4.5
				S109.887,24.142,107.402,24.142z"/>
		</g>
		<g>
			<path fill="#9d0003" d="M86.303,99.083c-0.882,0-1.772-0.258-2.553-0.797c-2.045-1.412-2.559-4.215-1.146-6.26l20.532-29.742
				c1.411-2.045,4.214-2.56,6.26-1.146c2.045,1.412,2.559,4.215,1.146,6.26L90.01,97.14C89.137,98.406,87.731,99.083,86.303,99.083z
				"/>
		</g>
		<g>
			<path fill="#9d0003" d="M137.166,66.708c-1.288,0-2.566-0.55-3.457-1.615c-1.593-1.907-1.338-4.745,0.569-6.339l7.987-6.672
				c1.908-1.594,4.746-1.338,6.339,0.569s1.339,4.745-0.569,6.339l-7.987,6.672C139.206,66.366,138.183,66.708,137.166,66.708z"/>
		</g>
		<g>
			<path fill="#9d0003" d="M86.139,104.365c-5.4,0-9.781-4.381-9.781-9.779c0-5.4,4.381-9.782,9.781-9.782
				c5.398,0,9.781,4.382,9.781,9.782C95.92,99.982,91.537,104.365,86.139,104.365z"/>
		</g>
	</g>
</g>
<g id="Layer_2">
</g>
</svg>
