<?xml version="1.0" encoding="utf-8"?>
<!-- Generator: Adobe Illustrator 16.0.0, SVG Export Plug-In . SVG Version: 6.00 Build 0)  -->
<!DOCTYPE svg PUBLIC "-//W3C//DTD SVG 1.1//EN" "http://www.w3.org/Graphics/SVG/1.1/DTD/svg11.dtd">
<svg version="1.1" xmlns="http://www.w3.org/2000/svg" xmlns:xlink="http://www.w3.org/1999/xlink" x="0px" y="0px"
	 width="172.278px" height="174.782px" viewBox="0 0 172.278 174.782" enable-background="new 0 0 172.278 174.782"
	 xml:space="preserve" viewbox="0 0 172 174">
<g id="Layer_1">
	<g>
		<g>
			<path fill="#9d0003" d="M86.139,58.21c-5.4,0-9.781-4.381-9.781-9.781c0-5.398,4.381-9.781,9.781-9.781
				c5.398,0,9.781,4.383,9.781,9.781S91.537,58.21,86.139,58.21z"/>
		</g>
		<g>
			<path fill="#9d0003" d="M50.221,96.858c-0.908,0-1.824-0.273-2.618-0.843c-5.993-4.296-11.09-9.505-15.148-15.483
				c-6.524-9.608-9.973-20.709-9.973-32.104s3.449-22.495,9.974-32.104c4.058-5.977,9.154-11.186,15.147-15.481
				c2.021-1.448,4.832-0.983,6.279,1.035c1.448,2.021,0.984,4.831-1.036,6.279c-5.129,3.677-9.484,8.126-12.945,13.223
				c-5.508,8.111-8.419,17.465-8.419,27.049s2.911,18.938,8.419,27.048c3.461,5.098,7.816,9.547,12.945,13.224
				c2.02,1.448,2.484,4.259,1.036,6.279C53.004,96.206,51.623,96.858,50.221,96.858z"/>
		</g>
		<g>
			<path fill="#9d0003" d="M66.691,76.684c-0.832,0-1.673-0.23-2.425-0.713c-9.883-6.338-15.784-16.634-15.784-27.542
				s5.901-21.204,15.784-27.542c2.093-1.342,4.876-0.733,6.217,1.359c1.341,2.092,0.733,4.875-1.359,6.217
				c-7.29,4.675-11.643,12.139-11.643,19.966s4.353,15.291,11.643,19.966c2.092,1.342,2.7,4.125,1.359,6.217
				C69.625,75.952,68.173,76.684,66.691,76.684z"/>
		</g>
		<g>
			<path fill="#9d0003" d="M122.057,96.858c-1.4,0-2.782-0.652-3.66-1.878c-1.449-2.021-0.984-4.831,1.035-6.279
				c5.129-3.677,9.484-8.126,12.945-13.223c5.508-8.111,8.419-17.465,8.419-27.049s-2.911-18.938-8.419-27.048
				c-3.461-5.098-7.816-9.547-12.945-13.224c-2.02-1.448-2.484-4.259-1.035-6.279c1.447-2.02,4.258-2.483,6.278-1.035
				c5.993,4.296,11.09,9.505,15.147,15.482c6.525,9.608,9.974,20.709,9.974,32.104s-3.448,22.495-9.974,32.104
				c-4.058,5.977-9.154,11.186-15.147,15.482C123.881,96.584,122.965,96.858,122.057,96.858z"/>
		</g>
		<g>
			<path fill="#9d0003" d="M105.587,76.684c-1.481,0-2.933-0.731-3.792-2.072c-1.342-2.092-0.733-4.875,1.358-6.217
				c7.29-4.675,11.643-12.139,11.643-19.966s-4.353-15.291-11.643-19.966c-2.092-1.342-2.7-4.125-1.358-6.217
				c1.341-2.094,4.125-2.701,6.217-1.359c9.883,6.338,15.784,16.634,15.784,27.542s-5.901,21.204-15.784,27.542
				C107.26,76.453,106.418,76.684,105.587,76.684z"/>
		</g>
		<g>
			<path fill="#9d0003" d="M111.354,174.782c-2.001,0-3.828-1.346-4.353-3.373L86.112,90.784l-20.889,80.625
				c-0.623,2.406-3.079,3.85-5.484,3.229c-2.406-0.625-3.851-3.08-3.228-5.486l25.245-97.439c0.514-1.984,2.305-3.371,4.356-3.371
				c2.05,0,3.841,1.387,4.356,3.371l25.245,97.439c0.623,2.406-0.821,4.861-3.228,5.486
				C112.107,174.735,111.728,174.782,111.354,174.782z"/>
		</g>
	</g>
</g>
<g id="Layer_2">
</g>
</svg>
